<svg xmlns="http://www.w3.org/2000/svg" viewBox="0 0 621.05 148.11"><defs><style>.cls-1{fill:#424242;}</style></defs><title>資產 2</title><g id="圖層_2" data-name="圖層 2"><g id="圖層_1-2" data-name="圖層 1"><path class="cls-1" d="M410.11,99.26h-2a12.42,12.42,0,0,0-2.17-2,6.57,6.57,0,0,0-3.81-.88,14.75,14.75,0,0,0-4.42.74l-5.44,1.7a63.11,63.11,0,0,1-6.86,1.7,43.76,43.76,0,0,1-8.43.75,46,46,0,0,1-16.66-3.12A45.32,45.32,0,0,1,345,88a59,59,0,0,1-11.15-15.77,47.07,47.07,0,0,1-4.49-21.08,52.77,52.77,0,0,1,13.86-35.76A49.19,49.19,0,0,1,358.58,4.15,45,45,0,0,1,377.89,0a31.13,31.13,0,0,1,7.48.82,47.15,47.15,0,0,1,5.85,1.84q2.56,1,4.76,1.83a11.78,11.78,0,0,0,4.21.82,6.54,6.54,0,0,0,3.88-.89,14.54,14.54,0,0,0,2.1-2h2V29.64h-1.49a85.52,85.52,0,0,0-3.13-10.2,29.09,29.09,0,0,0-5.3-8.9,25.25,25.25,0,0,0-8.64-6.25,36,36,0,0,0-25.36-.14,26.05,26.05,0,0,0-8.7,6A28.94,28.94,0,0,0,350,18.83a52.09,52.09,0,0,0-3.19,10.47,83.34,83.34,0,0,0-1.44,11.15c-.22,3.77-.33,7.32-.33,10.68q0,14.26,2.31,23.66t6.45,14.81a22.22,22.22,0,0,0,10,7.62,36.74,36.74,0,0,0,12.91,2.18q9.12,0,14.69-2.59a24.61,24.61,0,0,0,9-6.73,29.5,29.5,0,0,0,5.17-9.38q1.77-5.24,3.13-10.4h1.49Z"/><path class="cls-1" d="M493.75,69.74a29.57,29.57,0,0,1,2.67-12.56,34.9,34.9,0,0,1,6.87-10,32,32,0,0,1,9.46-6.66,25,25,0,0,1,10.52-2.42,26,26,0,0,1,10.9,2.42,31.23,31.23,0,0,1,9.46,6.66,32.63,32.63,0,0,1,6.66,10,31.23,31.23,0,0,1,2.51,12.56,30.78,30.78,0,0,1-2.3,11.62,33.71,33.71,0,0,1-6.27,10.1,32.09,32.09,0,0,1-9.38,7.13,25.49,25.49,0,0,1-11.58,2.71,26.73,26.73,0,0,1-11.79-2.63,30.29,30.29,0,0,1-9.38-7A32.11,32.11,0,0,1,496,81.57,32.61,32.61,0,0,1,493.75,69.74Zm9.75,0a76.31,76.31,0,0,0,1,13.32,26.69,26.69,0,0,0,3.4,9.5,15.12,15.12,0,0,0,6.1,5.69,23.83,23.83,0,0,0,18.46,0,15.18,15.18,0,0,0,6.15-5.69,26.88,26.88,0,0,0,3.39-9.5,76.31,76.31,0,0,0,1-13.32,81.86,81.86,0,0,0-.76-11.33,31,31,0,0,0-2.93-9.75,17.44,17.44,0,0,0-6-6.84,21.17,21.17,0,0,0-20.11,0,17.47,17.47,0,0,0-6,6.84,31,31,0,0,0-2.92,9.75A81.84,81.84,0,0,0,503.5,69.74Z"/><path class="cls-1" d="M48.56,73.29A46.64,46.64,0,0,1,47.38,84c-2.9,12.28-14.65,17.22-26.59,16.84A29,29,0,0,1,8.36,98c-3.8-2-7-5.34-8-9.5s.53-9,4.18-11.24,9.19-1,11,2.88c2.52,5.36-3.18,11,.26,16.09a5.68,5.68,0,0,0,3.51,2.18c3.81.84,10.56.62,13.31-2.65a16.08,16.08,0,0,0,3.87-10.45V1.94H21.09V0H65.7V1.94H48.56ZM66.37,1.94H64.82a.18.18,0,0,1-.18-.17V.17A.18.18,0,0,1,64.82,0h1.55a.18.18,0,0,1,.18.17v1.6A.18.18,0,0,1,66.37,1.94Zm-44.46,0H20.35a.18.18,0,0,1-.17-.17V.17A.18.18,0,0,1,20.35,0h1.56a.18.18,0,0,1,.18.17v1.6A.18.18,0,0,1,21.91,1.94Z"/><path class="cls-1" d="M60.25,100.05H70.1V39.34H60.25V38.09H111V53.45h-1a44.44,44.44,0,0,0-2.49-6.08,16.72,16.72,0,0,0-3.19-4.44,11.87,11.87,0,0,0-4.44-2.71,19.27,19.27,0,0,0-6.22-.88H79V66.77h5.77a19.71,19.71,0,0,0,5-.54,7.52,7.52,0,0,0,3.5-2,11.81,11.81,0,0,0,2.49-4,49.06,49.06,0,0,0,2-6.52h1v27.6h-1c-.42-1.71-.84-3.37-1.29-5a15.4,15.4,0,0,0-1.86-4.26,8.87,8.87,0,0,0-3.2-3A10.63,10.63,0,0,0,86.17,68H79v32H95.75A14.74,14.74,0,0,0,103.88,98a18.93,18.93,0,0,0,5.28-5,21.51,21.51,0,0,0,3-6,31.81,31.81,0,0,0,1.24-5.15h1V101.3H60.25Zm.44-60.71h-.88a.17.17,0,0,1-.17-.17v-.91a.17.17,0,0,1,.17-.17h.88a.18.18,0,0,1,.17.17v.91A.18.18,0,0,1,60.69,39.34Zm0,62h-.88a.17.17,0,0,1-.17-.17v-.91a.17.17,0,0,1,.17-.17h.88a.18.18,0,0,1,.17.17v.91A.18.18,0,0,1,60.69,101.3Z"/><path class="cls-1" d="M257.05,100.05h6.45a1,1,0,0,0,1-1V74.83a1,1,0,0,0-.12-.47L244.77,39.83a1,1,0,0,0-.84-.49H239.3V38.09h21.35v1.25h-4.28a1,1,0,0,0-.84,1.44l16.06,28.28a1,1,0,0,0,1.7,0l15.18-28.28a1,1,0,0,0-.85-1.42h-5.05V38.09h14.89v1.25h-6.22a1,1,0,0,0-.85.51L273.46,71.52a1.07,1.07,0,0,0-.11.46v27.1a1,1,0,0,0,1,1h6.86v1.25H257.05ZM239.84,39.34H239a.17.17,0,0,1-.17-.17v-.91a.17.17,0,0,1,.17-.17h.88a.18.18,0,0,1,.17.17v.91A.18.18,0,0,1,239.84,39.34Zm21.15,0h-.88a.17.17,0,0,1-.17-.17v-.91a.17.17,0,0,1,.17-.17H261a.18.18,0,0,1,.17.17v.91A.18.18,0,0,1,261,39.34Zm22.09,0h-.88a.18.18,0,0,1-.17-.17v-.91a.18.18,0,0,1,.17-.17h.88a.17.17,0,0,1,.17.17v.91A.17.17,0,0,1,283.08,39.34Zm14.82,0H297a.18.18,0,0,1-.17-.17v-.91a.18.18,0,0,1,.17-.17h.88a.17.17,0,0,1,.17.17v.91A.17.17,0,0,1,297.9,39.34Zm-16.26,62h-.88a.17.17,0,0,1-.17-.17v-.91a.17.17,0,0,1,.17-.17h.88a.18.18,0,0,1,.17.17v.91A.18.18,0,0,1,281.64,101.3Zm-24.09,0h-.88a.18.18,0,0,1-.17-.17v-.91a.18.18,0,0,1,.17-.17h.88a.17.17,0,0,1,.17.17v.91A.17.17,0,0,1,257.55,101.3Zm4.91,0h-.88a.17.17,0,0,1-.17-.17v-.91a.17.17,0,0,1,.17-.17h.88a.18.18,0,0,1,.17.17v.91A.18.18,0,0,1,262.46,101.3Z"/><path class="cls-1" d="M124.84,100.05h4a3.35,3.35,0,0,0,3.36-3.36v-54a3.35,3.35,0,0,0-3.36-3.36h-3.4V38.09h14a3.35,3.35,0,0,1,2.86,1.59l29,46.79h.18V41.82A2.48,2.48,0,0,0,169,39.34h-4.3V38.09h14.95v1.25h-3.48a3.36,3.36,0,0,0-3.36,3.36v58.6H171L133.67,43h-.18V96.69a3.36,3.36,0,0,0,3.37,3.36H140v1.25H124.84Z"/><rect class="cls-1" x="164.16" y="38.09" width="1.22" height="1.24" rx="0.17"/><rect class="cls-1" x="124.84" y="38.09" width="1.22" height="1.24" rx="0.17"/><rect class="cls-1" x="179.17" y="38.09" width="1.22" height="1.24" rx="0.17"/><rect class="cls-1" x="124.22" y="100.05" width="1.22" height="1.24" rx="0.17"/><rect class="cls-1" x="139.23" y="100.05" width="1.22" height="1.24" rx="0.17"/><path class="cls-1" d="M171.89,100.05h16.65a2.54,2.54,0,0,0,2.55-2.54V41a1.64,1.64,0,0,0-1.64-1.63h-5.13V38.09h14.49a2.55,2.55,0,0,1,2.16,1.2l29.26,47.18h.18V41.88a2.54,2.54,0,0,0-2.54-2.54h-4.24V38.09h20.85v1.25H234.29a2.54,2.54,0,0,0-2.55,2.54V101.3H230L192.59,43h-.17V97.51a2.54,2.54,0,0,0,2.54,2.54h3.92v1.25h-27Z"/><rect class="cls-1" x="223.08" y="38.09" width="1.22" height="1.24" rx="0.17"/><rect class="cls-1" x="183.76" y="38.09" width="1.22" height="1.24" rx="0.17"/><rect class="cls-1" x="243.99" y="38.09" width="1.22" height="1.24" rx="0.17"/><rect class="cls-1" x="171.28" y="100.05" width="1.22" height="1.24" rx="0.17"/><rect class="cls-1" x="198.15" y="100.05" width="1.22" height="1.24" rx="0.17"/><rect class="cls-1" x="128.66" y="39.33" width="1.43" height="60.72"/><rect class="cls-1" x="66.61" y="39.33" width="1.43" height="60.72"/><rect class="cls-1" x="187.59" y="39.33" width="1.43" height="60.72"/><path class="cls-1" d="M422.15,100.05h8.61a.62.62,0,0,0,.63-.62V40a.62.62,0,0,0-.63-.62h-8.61a.63.63,0,0,1-.62-.63h0a.62.62,0,0,1,.62-.62h27.34a.63.63,0,0,1,.63.62h0a.63.63,0,0,1-.63.63h-8.61a.62.62,0,0,0-.62.62V67.74a.62.62,0,0,0,.62.62H469.2a.62.62,0,0,0,.63-.62V40a.62.62,0,0,0-.63-.62h-8.61a.63.63,0,0,1-.62-.63h0a.62.62,0,0,1,.62-.62h27.34a.62.62,0,0,1,.62.62h0a.63.63,0,0,1-.62.63h-8.61a.62.62,0,0,0-.62.62V99.43a.62.62,0,0,0,.62.62h8.61a.63.63,0,0,1,.62.63h0a.62.62,0,0,1-.62.62H460.59a.62.62,0,0,1-.62-.62h0a.63.63,0,0,1,.62-.63h8.61a.62.62,0,0,0,.63-.62V70.23a.63.63,0,0,0-.63-.62H440.88a.62.62,0,0,0-.62.62v29.2a.62.62,0,0,0,.62.62h8.61a.63.63,0,0,1,.63.63h0a.63.63,0,0,1-.63.62H422.15a.62.62,0,0,1-.62-.62h0A.63.63,0,0,1,422.15,100.05Z"/><rect class="cls-1" x="427.92" y="39.33" width="1.43" height="60.72"/><rect class="cls-1" x="420.92" y="38.09" width="1.22" height="1.24" rx="0.17"/><rect class="cls-1" x="449.44" y="38.09" width="1.22" height="1.24" rx="0.17"/><rect class="cls-1" x="459.33" y="38.09" width="1.22" height="1.24" rx="0.17"/><rect class="cls-1" x="487.85" y="38.09" width="1.22" height="1.24" rx="0.17"/><rect class="cls-1" x="420.92" y="100.05" width="1.22" height="1.24" rx="0.17"/><rect class="cls-1" x="449.44" y="100.05" width="1.22" height="1.24" rx="0.17"/><rect class="cls-1" x="459.33" y="100.05" width="1.22" height="1.24" rx="0.17"/><rect class="cls-1" x="487.85" y="100.05" width="1.22" height="1.24" rx="0.17"/><path class="cls-1" d="M559.49,38.26H586.2a.61.61,0,0,1,.61.61h0a.61.61,0,0,1-.61.61h-8.41a.61.61,0,0,0-.61.61V81.36a36.27,36.27,0,0,0,.91,8.8A14.81,14.81,0,0,0,580.82,96a10.15,10.15,0,0,0,4.51,3.16,18.27,18.27,0,0,0,6.16,1,23.74,23.74,0,0,0,8.58-1.44,14.37,14.37,0,0,0,6.42-5.07A19.66,19.66,0,0,0,608,91.33a12.8,12.8,0,0,0,1.13-2.65,20,20,0,0,0,.74-3.64,44.83,44.83,0,0,0,.26-5.24V40.09a.61.61,0,0,0-.61-.61h-8.41a.61.61,0,0,1-.61-.61h0a.61.61,0,0,1,.61-.61h19.34a.6.6,0,0,1,.6.61h0a.6.6,0,0,1-.6.61H612a.61.61,0,0,0-.61.61V81.53a26.22,26.22,0,0,1-.78,6.63,17.9,17.9,0,0,1-3.21,6.2,16.44,16.44,0,0,1-6.5,5,26.79,26.79,0,0,1-11,1.91q-10.39,0-15.9-5.12t-5.51-15.69V40.09a.61.61,0,0,0-.61-.61h-8.41a.61.61,0,0,1-.61-.61h0A.61.61,0,0,1,559.49,38.26Z"/><path class="cls-1" d="M575.75,97.57a.6.6,0,0,1-.3-.07c-5-2.35-8.15-6.61-9.38-12.65s-1.08-12.46-.94-18.59c0-2,.1-4,.1-6V38.87a.7.7,0,1,1,1.4,0V60.28c0,2,0,4-.1,6-.14,6.06-.29,12.32.92,18.28,1.13,5.59,4,9.51,8.59,11.66a.72.72,0,0,1,.34.94A.7.7,0,0,1,575.75,97.57Z"/><rect class="cls-1" x="558.43" y="38.26" width="1.19" height="1.22" rx="0.17"/><rect class="cls-1" x="586.28" y="38.26" width="1.19" height="1.22" rx="0.17"/><rect class="cls-1" x="599.91" y="38.26" width="1.19" height="1.22" rx="0.17"/><path class="cls-1" d="M216.22,147.08a8,8,0,0,0,2-.22,7.07,7.07,0,0,0,1.45-.57l.3,1a7.29,7.29,0,0,1-1.67.58,10.21,10.21,0,0,1-2.24.21,7.78,7.78,0,0,1-2.87-.52,6.6,6.6,0,0,1-2.33-1.51,7.09,7.09,0,0,1-1.58-2.47,9.43,9.43,0,0,1-.57-3.42,9.62,9.62,0,0,1,.55-3.38,7.36,7.36,0,0,1,1.53-2.51,6.26,6.26,0,0,1,2.3-1.54,7.77,7.77,0,0,1,2.92-.53,9.87,9.87,0,0,1,2.33.23,7.88,7.88,0,0,1,1.7.65l-.29,1a7.28,7.28,0,0,0-1.64-.61,7.44,7.44,0,0,0-1.83-.2,7.11,7.11,0,0,0-2.35.39,5.6,5.6,0,0,0-2,1.24,6.19,6.19,0,0,0-1.39,2.17,8.75,8.75,0,0,0-.52,3.16,8.34,8.34,0,0,0,.56,3.23,5.56,5.56,0,0,0,1.44,2.11,5.35,5.35,0,0,0,2,1.16A7.1,7.1,0,0,0,216.22,147.08Z"/><path class="cls-1" d="M247.71,132.23a7,7,0,0,1,2.63.49,5.79,5.79,0,0,1,2.15,1.49,7,7,0,0,1,1.45,2.48,10.19,10.19,0,0,1,.53,3.48,9.88,9.88,0,0,1-.54,3.41,7.27,7.27,0,0,1-1.47,2.49,6.13,6.13,0,0,1-2.19,1.52,6.82,6.82,0,0,1-2.66.52,7.19,7.19,0,0,1-2.63-.49,6,6,0,0,1-2.15-1.49,7.1,7.1,0,0,1-1.45-2.48,10.48,10.48,0,0,1-.53-3.48,9.9,9.9,0,0,1,.54-3.42,7.34,7.34,0,0,1,1.48-2.48,6.2,6.2,0,0,1,2.19-1.53A7,7,0,0,1,247.71,132.23Zm-5.53,7.94a9.31,9.31,0,0,0,.45,3.06,6.65,6.65,0,0,0,1.22,2.15,5,5,0,0,0,1.76,1.28,5.32,5.32,0,0,0,2.1.42,5.25,5.25,0,0,0,2.07-.42,4.85,4.85,0,0,0,1.73-1.28,6.26,6.26,0,0,0,1.19-2.15,10.69,10.69,0,0,0,0-6.17,5.94,5.94,0,0,0-1.22-2.15,4.9,4.9,0,0,0-1.76-1.25,5.68,5.68,0,0,0-2.1-.4,5.2,5.2,0,0,0-2.06.42,4.65,4.65,0,0,0-1.73,1.28,6.27,6.27,0,0,0-1.2,2.15A9.6,9.6,0,0,0,242.18,140.17Z"/><path class="cls-1" d="M277.18,132.42h1.28v9.27a6.17,6.17,0,0,0,1.11,4.13,4.25,4.25,0,0,0,3.37,1.26,4.55,4.55,0,0,0,1.91-.37,3.33,3.33,0,0,0,1.29-1.05,4.34,4.34,0,0,0,.74-1.61,8.26,8.26,0,0,0,.24-2.06v-9.57h1.27v9.49a6.69,6.69,0,0,1-1.4,4.7,5.26,5.26,0,0,1-4.05,1.5,5.77,5.77,0,0,1-4.2-1.5q-1.56-1.5-1.56-4.82Z"/><path class="cls-1" d="M322.08,132.42v1h-5.34v14.45h-1.28V133.46h-5.23v-1Z"/><path class="cls-1" d="M343.88,132.42h1.28v9.27a6.23,6.23,0,0,0,1.1,4.13,4.25,4.25,0,0,0,3.37,1.26,4.63,4.63,0,0,0,1.92-.37,3.48,3.48,0,0,0,1.29-1.05,4.49,4.49,0,0,0,.73-1.61,8.26,8.26,0,0,0,.24-2.06v-9.57h1.28v9.49a6.74,6.74,0,0,1-1.4,4.7,5.3,5.3,0,0,1-4.06,1.5,5.77,5.77,0,0,1-4.2-1.5c-1-1-1.55-2.61-1.55-4.82Z"/><path class="cls-1" d="M378.64,132.42h4.53a6.52,6.52,0,0,1,2.12.32,4.37,4.37,0,0,1,1.54.89,3.75,3.75,0,0,1,.93,1.35,4.7,4.7,0,0,1,.32,1.75,4.39,4.39,0,0,1-.28,1.61,4.44,4.44,0,0,1-.75,1.27,4.57,4.57,0,0,1-2.36,1.49l4.32,6.81h-1.47l-4-6.56H379.8v6.56h-1.16Zm1.16,7.89h2.85a5.83,5.83,0,0,0,1.65-.22,3.47,3.47,0,0,0,1.3-.66,3.05,3.05,0,0,0,.85-1.11,3.73,3.73,0,0,0,.3-1.55,3,3,0,0,0-1-2.54,5,5,0,0,0-3.05-.77H379.8Z"/><path class="cls-1" d="M411.09,132.42h8.85v1h-7.57v6h6.93v1h-6.93v6.42H420v1h-8.92Z"/><rect class="cls-1" x="63.4" y="66.77" width="9.88" height="1.24"/></g></g></svg>