<?xml version="1.0" encoding="utf-8"?>
<!-- Generator: Adobe Illustrator 16.0.0, SVG Export Plug-In . SVG Version: 6.00 Build 0)  -->
<!DOCTYPE svg PUBLIC "-//W3C//DTD SVG 1.1//EN" "http://www.w3.org/Graphics/SVG/1.1/DTD/svg11.dtd">
<svg version="1.1" id="Layer_1" xmlns="http://www.w3.org/2000/svg" xmlns:xlink="http://www.w3.org/1999/xlink" x="0px" y="0px"
	 width="90px" height="90px" viewBox="0 0 90 90" enable-background="new 0 0 90 90" xml:space="preserve">
<circle id="ellipse" fill="#31C139" cx="45" cy="45" r="45"/>
<path id="logo" fill="#FFFFFF" d="M45,21.709c7.154,0.07,13.746,1.934,19.477,6.363c3.867,2.971,6.715,6.715,7.998,11.496
	c1.494,5.607,0.422,10.775-2.777,15.557c-2.285,3.393-5.309,6.064-8.42,8.648c-5.01,4.148-10.389,7.752-16.119,10.828
	c-0.51,0.264-1.037,0.51-1.582,0.668c-0.896,0.246-1.529-0.334-1.371-1.248c0.07-0.439,0.299-0.861,0.404-1.301
	c0.281-1.354,0.615-2.707,0.773-4.096c0.123-1.055-0.439-1.512-1.494-1.6c-6.504-0.598-12.41-2.76-17.402-7.031
	c-4.324-3.691-7.014-8.332-7.506-14.045c-0.422-4.957,1.055-9.404,4.061-13.342c4.096-5.344,9.633-8.402,16.066-9.984
	C39.674,21.973,42.311,21.674,45,21.709z M44.543,43.031c0.193,0.246,0.299,0.352,0.369,0.457c1.705,2.32,3.41,4.641,5.133,6.961
	c0.51,0.686,1.16,0.949,1.811,0.738s1.02-0.738,1.02-1.582c0-3.604,0-7.207-0.018-10.828c0-0.896-0.65-1.547-1.477-1.547
	s-1.459,0.686-1.459,1.617c0,1.969,0,3.938-0.018,5.924c0,0.176-0.035,0.334-0.07,0.633c-0.193-0.229-0.299-0.369-0.387-0.492
	c-1.67-2.268-3.322-4.535-4.992-6.785c-0.58-0.773-1.125-1.02-1.828-0.809c-0.721,0.229-1.037,0.773-1.037,1.758
	c-0.018,3.463-0.018,6.926-0.018,10.389c0,1.09,0.58,1.74,1.477,1.758c0.914,0.018,1.494-0.633,1.512-1.705
	c0.018-1.318-0.018-2.654-0.018-3.973C44.543,44.771,44.543,43.98,44.543,43.031z M57.814,40.201c1.283,0,2.514,0,3.762,0
	c1.037,0,1.705-0.58,1.723-1.441c0.018-0.914-0.633-1.547-1.688-1.547c-1.688-0.018-3.357-0.018-5.045,0
	c-1.195,0.018-1.74,0.563-1.758,1.793c-0.018,1.055,0,2.109,0,3.182c0,2.461-0.018,4.904-0.018,7.365
	c0,1.143,0.545,1.688,1.67,1.688c1.775,0,3.551,0,5.344,0c0.721,0,1.195-0.352,1.441-0.984c0.369-0.932-0.404-1.951-1.477-1.969
	c-1.318-0.018-2.637,0-3.973,0c0-0.896,0-1.688,0-2.549c1.336,0,2.637,0,3.92,0c0.914,0,1.547-0.598,1.582-1.424
	c0.035-0.861-0.598-1.494-1.564-1.529c-0.404-0.018-0.809,0-1.23,0c-0.896,0-1.811,0-2.707,0
	C57.814,41.854,57.814,41.08,57.814,40.201z M29.707,48.287c0-0.369,0-0.65,0-0.932c0-2.813,0-5.625-0.018-8.438
	c0-1.037-0.615-1.688-1.477-1.688s-1.459,0.668-1.459,1.705c-0.018,3.533-0.018,7.066-0.018,10.6c0,1.125,0.563,1.67,1.688,1.688
	c1.705,0,3.41,0,5.115,0c1.037,0,1.688-0.563,1.705-1.441s-0.703-1.477-1.758-1.494C32.273,48.287,31.061,48.287,29.707,48.287z
	 M36.563,44.191h-0.018c0,1.775,0,3.551,0,5.344c0,1.02,0.598,1.67,1.477,1.688c0.879,0,1.477-0.633,1.477-1.652
	c0-3.586-0.018-7.154-0.035-10.74c0-0.299-0.07-0.633-0.229-0.879c-0.369-0.598-0.949-0.791-1.617-0.615
	c-0.65,0.176-1.037,0.721-1.055,1.547C36.563,40.641,36.563,42.416,36.563,44.191z"/>
</svg>
