<?xml version="1.0" encoding="utf-8"?>
<!-- Generator: Adobe Illustrator 16.0.0, SVG Export Plug-In . SVG Version: 6.00 Build 0)  -->
<!DOCTYPE svg PUBLIC "-//W3C//DTD SVG 1.1//EN" "http://www.w3.org/Graphics/SVG/1.1/DTD/svg11.dtd">
<svg version="1.1" id="圖層_1" xmlns:serif="http://www.serif.com/"
	 xmlns="http://www.w3.org/2000/svg" xmlns:xlink="http://www.w3.org/1999/xlink" x="0px" y="0px" width="90px" height="90px"
	 viewBox="0 0 90 90" enable-background="new 0 0 90 90" xml:space="preserve">
<g>
	<path fill="#1877F2" d="M90,45C90,20.147,69.853,0,45,0S0,20.147,0,45c0,22.46,16.456,41.077,37.969,44.453V58.008H26.543V45
		h11.426v-9.914c0-11.278,6.718-17.508,16.997-17.508c4.924,0,10.073,0.879,10.073,0.879v11.074h-5.675
		c-5.589,0-7.333,3.469-7.333,7.027V45h12.48l-1.995,13.008H52.031v31.445C73.544,86.077,90,67.46,90,45z"/>
	<path fill="#FFFFFF" d="M62.517,58.008L64.512,45h-12.48v-8.441c0-3.559,1.744-7.027,7.333-7.027h5.675V18.457
		c0,0-5.15-0.879-10.073-0.879c-10.279,0-16.997,6.23-16.997,17.508V45H26.543v13.008h11.426v31.445C40.26,89.813,42.608,90,45,90
		s4.74-0.187,7.031-0.547V58.008H62.517z"/>
</g>
</svg>
