<?xml version="1.0" encoding="utf-8"?>
<!-- Generator: Adobe Illustrator 24.0.0, SVG Export Plug-In . SVG Version: 6.00 Build 0)  -->
<svg version="1.1" id="圖層_1" xmlns="http://www.w3.org/2000/svg" xmlns:xlink="http://www.w3.org/1999/xlink" x="0px" y="0px"
	 viewBox="0 0 621 148.1" style="enable-background:new 0 0 621 148.1;" xml:space="preserve">
<style type="text/css">
	.st0{fill:#9C5658;}
</style>
<title>資產 1</title>
<g id="圖層_2_1_">
	<g id="圖層_1-2">
		<path class="st0" d="M410.1,99.3h-2c-0.6-0.8-1.4-1.4-2.2-2c-1.2-0.7-2.5-1-3.8-0.9c-1.5,0-3,0.3-4.4,0.7l-5.4,1.7
			c-2.3,0.7-4.5,1.3-6.9,1.7c-2.8,0.5-5.6,0.8-8.4,0.8c-5.7,0-11.3-1.1-16.7-3.1c-5.7-2.3-11-5.8-15.3-10.1
			c-4.6-4.6-8.3-9.9-11.1-15.8c-3.1-6.6-4.6-13.8-4.5-21.1c0-13.2,4.9-26,13.9-35.8c4.3-4.7,9.6-8.5,15.4-11.2
			c6-2.8,12.6-4.2,19.3-4.2c2.5,0,5,0.2,7.5,0.8c2,0.5,3.9,1.1,5.9,1.8c1.7,0.7,3.3,1.3,4.8,1.8c1.3,0.5,2.8,0.8,4.2,0.8
			c1.4,0.1,2.7-0.2,3.9-0.9c0.8-0.6,1.5-1.3,2.1-2h2v27.2h-1.5c-0.8-3.5-1.9-6.9-3.1-10.2c-1.2-3.3-3-6.3-5.3-8.9
			c-2.4-2.7-5.3-4.8-8.6-6.3c-8.2-3.1-17.2-3.2-25.4-0.1c-3.3,1.4-6.2,3.4-8.7,6c-2.4,2.5-4.2,5.5-5.6,8.7
			c-1.4,3.4-2.5,6.9-3.2,10.5c-0.7,3.7-1.2,7.4-1.4,11.1c-0.2,3.8-0.3,7.3-0.3,10.7c0,9.5,0.8,17.4,2.3,23.7
			c1.5,6.3,3.7,11.2,6.5,14.8c2.5,3.4,6,6.1,10,7.6c4.1,1.5,8.5,2.2,12.9,2.2c6.1,0,11-0.9,14.7-2.6c3.5-1.5,6.6-3.8,9-6.7
			c2.3-2.8,4-6,5.2-9.4c1.2-3.5,2.2-7,3.1-10.4h1.5L410.1,99.3z"/>
		<path class="st0" d="M493.8,69.7c0-4.3,0.9-8.6,2.7-12.6c1.7-3.7,4-7.1,6.9-10c2.7-2.8,5.9-5,9.5-6.7c3.3-1.6,6.9-2.4,10.5-2.4
			c3.8,0,7.5,0.8,10.9,2.4c3.5,1.6,6.7,3.9,9.5,6.7c2.8,2.9,5.1,6.3,6.7,10c1.7,4,2.6,8.2,2.5,12.6c0,4-0.8,7.9-2.3,11.6
			c-1.5,3.7-3.6,7.1-6.3,10.1c-2.7,2.9-5.8,5.4-9.4,7.1c-3.6,1.8-7.6,2.7-11.6,2.7c-4.1,0-8.1-0.9-11.8-2.6c-3.6-1.7-6.7-4.1-9.4-7
			c-2.6-3-4.7-6.4-6.1-10.1C494.5,77.8,493.8,73.8,493.8,69.7z M503.5,69.7c-0.1,4.5,0.3,8.9,1,13.3c0.5,3.4,1.7,6.6,3.4,9.5
			c1.5,2.4,3.6,4.4,6.1,5.7c5.9,2.5,12.6,2.5,18.5,0c2.5-1.3,4.7-3.3,6.2-5.7c1.7-2.9,2.9-6.1,3.4-9.5c0.7-4.4,1.1-8.9,1-13.3
			c0-3.8-0.2-7.6-0.8-11.3c-0.4-3.4-1.4-6.7-2.9-9.8c-1.4-2.8-3.4-5.1-6-6.8c-6.3-3.4-13.8-3.4-20.1,0c-2.6,1.7-4.6,4.1-6,6.8
			c-1.5,3.1-2.5,6.4-2.9,9.8C503.8,62.2,503.5,65.9,503.5,69.7z"/>
		<path class="st0" d="M48.6,73.3c0,3.6-0.4,7.2-1.2,10.7c-2.9,12.3-14.6,17.2-26.6,16.8c-4.3,0-8.5-1-12.4-2.8c-3.8-2-7-5.3-8-9.5
			s0.5-9,4.2-11.2s9.2-1,11,2.9c2.5,5.4-3.2,11,0.3,16.1c0.9,1.1,2.1,1.9,3.5,2.2c3.8,0.8,10.6,0.6,13.3-2.7
			c2.5-2.9,3.9-6.6,3.9-10.4V1.9H21.1V0h44.6v1.9H48.6V73.3z M66.4,1.9h-1.6c-0.1,0-0.2-0.1-0.2-0.2V0.2c0-0.1,0.1-0.2,0.2-0.2h1.6
			c0.1,0,0.2,0.1,0.2,0.2v1.6C66.5,1.9,66.5,1.9,66.4,1.9z M21.9,1.9h-1.6c-0.1,0-0.2-0.1-0.2-0.2V0.2c0-0.1,0.1-0.2,0.2-0.2h1.6
			c0.1,0,0.2,0.1,0.2,0.2v1.6C22.1,1.9,22,1.9,21.9,1.9z"/>
		<path class="st0" d="M60.3,100.1h9.8V39.3h-9.8v-1.3H111v15.4h-1c-0.7-2.1-1.5-4.1-2.5-6.1c-0.8-1.6-1.9-3.1-3.2-4.4
			c-1.3-1.2-2.8-2.1-4.4-2.7c-2-0.6-4.1-0.9-6.2-0.9H79v27.4h5.8c1.7,0,3.4-0.1,5-0.5c1.3-0.3,2.5-1,3.5-2c1.1-1.2,1.9-2.5,2.5-4
			c0.8-2.1,1.5-4.3,2-6.5h1v27.6h-1c-0.4-1.7-0.8-3.4-1.3-5c-0.4-1.5-1-2.9-1.9-4.3c-0.8-1.3-1.9-2.3-3.2-3c-1.6-0.8-3.4-1.2-5.2-1
			H79v32h16.8c2.8,0.1,5.7-0.6,8.1-2c2.1-1.3,3.9-3,5.3-5c1.3-1.8,2.3-3.9,3-6c0.6-1.7,1-3.4,1.2-5.2h1v19.5H60.3V100.1z M60.7,39.3
			h-0.9c-0.1,0-0.2-0.1-0.2-0.2v-0.9c0-0.1,0.1-0.2,0.2-0.2h0.9c0.1,0,0.2,0.1,0.2,0.2v0.9C60.9,39.3,60.8,39.3,60.7,39.3z
			 M60.7,101.3h-0.9c-0.1,0-0.2-0.1-0.2-0.2v-0.9c0-0.1,0.1-0.2,0.2-0.2h0.9c0.1,0,0.2,0.1,0.2,0.2v0.9
			C60.8,101.2,60.8,101.3,60.7,101.3L60.7,101.3z"/>
		<path class="st0" d="M257,100.1h6.5c0.6,0,1-0.4,1-1V74.8c0-0.2,0-0.3-0.1-0.5l-19.6-34.5c-0.2-0.3-0.5-0.5-0.8-0.5h-4.6v-1.3
			h21.3v1.3h-4.3c-0.6,0-1,0.5-0.9,1.1c0,0.1,0,0.3,0.1,0.4l16.1,28.3c0.3,0.5,0.9,0.6,1.4,0.3c0.1-0.1,0.2-0.2,0.3-0.3l15.2-28.3
			c0.2-0.5,0-1.1-0.5-1.3c-0.1-0.1-0.2-0.1-0.4-0.1h-5v-1.3h14.9v1.3h-6.2c-0.4,0-0.7,0.2-0.9,0.5l-16.9,31.7
			c-0.1,0.1-0.1,0.3-0.1,0.5v27.1c0,0.6,0.4,1,1,1h6.9v1.3H257V100.1z M239.8,39.3H239c-0.1,0-0.2-0.1-0.2-0.2v-0.9
			c0-0.1,0.1-0.2,0.2-0.2h0.9c0.1,0,0.2,0.1,0.2,0.2v0.9C240,39.3,240,39.3,239.8,39.3C239.9,39.3,239.8,39.3,239.8,39.3z M261,39.3
			h-0.9c-0.1,0-0.2-0.1-0.2-0.2c0,0,0,0,0,0v-0.9c0-0.1,0.1-0.2,0.2-0.2l0,0h0.9c0.1,0,0.2,0.1,0.2,0.2v0.9
			C261.2,39.3,261.1,39.3,261,39.3L261,39.3z M283.1,39.3h-0.9c-0.1,0-0.2-0.1-0.2-0.2v-0.9c0-0.1,0.1-0.2,0.2-0.2h0.9
			c0.1,0,0.2,0.1,0.2,0.2c0,0,0,0,0,0v0.9C283.3,39.3,283.2,39.3,283.1,39.3L283.1,39.3z M297.9,39.3H297c-0.1,0-0.2-0.1-0.2-0.2
			v-0.9c0-0.1,0.1-0.2,0.2-0.2h0.9c0.1,0,0.2,0.1,0.2,0.2c0,0,0,0,0,0v0.9C298.1,39.3,298,39.3,297.9,39.3z M281.6,101.3h-0.9
			c-0.1,0-0.2-0.1-0.2-0.2c0,0,0,0,0,0v-0.9c0-0.1,0.1-0.2,0.2-0.2l0,0h0.9c0.1,0,0.2,0.1,0.2,0.2v0.9
			C281.8,101.2,281.7,101.3,281.6,101.3L281.6,101.3z M257.5,101.3h-0.9c-0.1,0-0.2-0.1-0.2-0.2v-0.9c0-0.1,0.1-0.2,0.2-0.2h0.9
			c0.1,0,0.2,0.1,0.2,0.2c0,0,0,0,0,0v0.9C257.7,101.2,257.6,101.3,257.5,101.3L257.5,101.3z M262.5,101.3h-0.9
			c-0.1,0-0.2-0.1-0.2-0.2c0,0,0,0,0,0v-0.9c0-0.1,0.1-0.2,0.2-0.2l0,0h0.9c0.1,0,0.2,0.1,0.2,0.2v0.9
			C262.6,101.2,262.5,101.3,262.5,101.3L262.5,101.3z"/>
		<path class="st0" d="M124.8,100.1h4c1.9,0,3.4-1.5,3.4-3.3c0,0,0,0,0,0v-54c0-1.9-1.5-3.4-3.3-3.4c0,0,0,0,0,0h-3.4v-1.2h14
			c1.2,0,2.2,0.6,2.9,1.6l29,46.8h0.2V41.8c0-1.4-1.1-2.5-2.5-2.5h-4.3v-1.3h14.9v1.3h-3.5c-1.9,0-3.4,1.5-3.4,3.4l0,0v58.6H171
			L133.7,43h-0.2v53.7c0,1.9,1.5,3.4,3.4,3.4c0,0,0,0,0,0h3.1v1.3h-15.2V100.1z"/>
		<path class="st0" d="M164.3,38.1h0.9c0.1,0,0.2,0.1,0.2,0.2v0.9c0,0.1-0.1,0.2-0.2,0.2h-0.9c-0.1,0-0.2-0.1-0.2-0.2v-0.9
			C164.2,38.2,164.2,38.1,164.3,38.1z"/>
		<path class="st0" d="M125,38.1h0.9c0.1,0,0.2,0.1,0.2,0.2v0.9c0,0.1-0.1,0.2-0.2,0.2H125c-0.1,0-0.2-0.1-0.2-0.2v-0.9
			C124.8,38.2,124.9,38.1,125,38.1z"/>
		<path class="st0" d="M179.3,38.1h0.9c0.1,0,0.2,0.1,0.2,0.2v0.9c0,0.1-0.1,0.2-0.2,0.2h-0.9c-0.1,0-0.2-0.1-0.2-0.2v-0.9
			C179.2,38.2,179.2,38.1,179.3,38.1z"/>
		<path class="st0" d="M124.4,100.1h0.9c0.1,0,0.2,0.1,0.2,0.2v0.9c0,0.1-0.1,0.2-0.2,0.2h-0.9c-0.1,0-0.2-0.1-0.2-0.2v-0.9
			C124.2,100.1,124.3,100.1,124.4,100.1z"/>
		<path class="st0" d="M139.4,100.1h0.9c0.1,0,0.2,0.1,0.2,0.2v0.9c0,0.1-0.1,0.2-0.2,0.2h-0.9c-0.1,0-0.2-0.1-0.2-0.2v-0.9
			C139.2,100.1,139.3,100.1,139.4,100.1z"/>
		<path class="st0" d="M171.9,100.1h16.6c1.4,0,2.5-1.1,2.5-2.5c0,0,0,0,0,0V41c0-0.9-0.7-1.6-1.6-1.6h-5.1v-1.3h14.5
			c0.9,0,1.7,0.5,2.2,1.2l29.3,47.2h0.2V41.9c0-1.4-1.1-2.5-2.5-2.5h-4.2v-1.3h20.9v1.3h-10.2c-1.4,0-2.5,1.1-2.5,2.5c0,0,0,0,0,0
			v59.4H230L192.6,43h-0.2v54.5c0,1.4,1.1,2.5,2.5,2.5h3.9v1.3h-27L171.9,100.1z"/>
		<path class="st0" d="M223.3,38.1h0.9c0.1,0,0.2,0.1,0.2,0.2v0.9c0,0.1-0.1,0.2-0.2,0.2h-0.9c-0.1,0-0.2-0.1-0.2-0.2v-0.9
			C223.1,38.2,223.2,38.1,223.3,38.1z"/>
		<path class="st0" d="M183.9,38.1h0.9c0.1,0,0.2,0.1,0.2,0.2v0.9c0,0.1-0.1,0.2-0.2,0.2h-0.9c-0.1,0-0.2-0.1-0.2-0.2v-0.9
			C183.8,38.2,183.8,38.1,183.9,38.1z"/>
		<path class="st0" d="M244.2,38.1h0.9c0.1,0,0.2,0.1,0.2,0.2v0.9c0,0.1-0.1,0.2-0.2,0.2h-0.9c-0.1,0-0.2-0.1-0.2-0.2v-0.9
			C244,38.2,244.1,38.1,244.2,38.1z"/>
		<path class="st0" d="M171.4,100.1h0.9c0.1,0,0.2,0.1,0.2,0.2v0.9c0,0.1-0.1,0.2-0.2,0.2h-0.9c-0.1,0-0.2-0.1-0.2-0.2v-0.9
			C171.3,100.1,171.4,100.1,171.4,100.1z"/>
		<path class="st0" d="M198.3,100.1h0.9c0.1,0,0.2,0.1,0.2,0.2v0.9c0,0.1-0.1,0.2-0.2,0.2h-0.9c-0.1,0-0.2-0.1-0.2-0.2v-0.9
			C198.1,100.1,198.2,100.1,198.3,100.1z"/>
		<rect x="128.7" y="39.3" class="st0" width="1.4" height="60.7"/>
		<rect x="66.6" y="39.3" class="st0" width="1.4" height="60.7"/>
		<rect x="187.6" y="39.3" class="st0" width="1.4" height="60.7"/>
		<path class="st0" d="M422.1,100.1h8.6c0.3,0,0.6-0.3,0.6-0.6c0,0,0,0,0,0V40c0-0.3-0.3-0.6-0.6-0.6c0,0,0,0,0,0h-8.6
			c-0.3,0-0.6-0.3-0.6-0.6l0,0c0-0.3,0.3-0.6,0.6-0.6h27.3c0.3,0,0.6,0.3,0.6,0.6l0,0c0,0.3-0.3,0.6-0.6,0.6l0,0h-8.6
			c-0.3,0-0.6,0.3-0.6,0.6v27.7c0,0.3,0.3,0.6,0.6,0.6h28.3c0.3,0,0.6-0.3,0.6-0.6c0,0,0,0,0,0V40c0-0.3-0.3-0.6-0.6-0.6
			c0,0,0,0,0,0h-8.6c-0.3,0-0.6-0.3-0.6-0.6l0,0c0-0.3,0.3-0.6,0.6-0.6h27.3c0.3,0,0.6,0.3,0.6,0.6l0,0c0,0.3-0.3,0.6-0.6,0.6h-8.6
			c-0.3,0-0.6,0.3-0.6,0.6v59.4c0,0.3,0.3,0.6,0.6,0.6h8.6c0.3,0,0.6,0.3,0.6,0.6l0,0c0,0.3-0.3,0.6-0.6,0.6h-27.3
			c-0.3,0-0.6-0.3-0.6-0.6l0,0c0-0.3,0.3-0.6,0.6-0.6h8.6c0.3,0,0.6-0.3,0.6-0.6c0,0,0,0,0,0V70.2c0-0.3-0.3-0.6-0.6-0.6h-28.3
			c-0.3,0-0.6,0.3-0.6,0.6v29.2c0,0.3,0.3,0.6,0.6,0.6h8.6c0.3,0,0.6,0.3,0.6,0.6l0,0l0,0c0,0.3-0.3,0.6-0.6,0.6h-27.3
			c-0.3,0-0.6-0.3-0.6-0.6l0,0C421.5,100.3,421.8,100.1,422.1,100.1z"/>
		<rect x="427.9" y="39.3" class="st0" width="1.4" height="60.7"/>
		<path class="st0" d="M421.1,38.1h0.9c0.1,0,0.2,0.1,0.2,0.2v0.9c0,0.1-0.1,0.2-0.2,0.2h-0.9c-0.1,0-0.2-0.1-0.2-0.2v-0.9
			C420.9,38.2,421,38.1,421.1,38.1z"/>
		<path class="st0" d="M449.6,38.1h0.9c0.1,0,0.2,0.1,0.2,0.2v0.9c0,0.1-0.1,0.2-0.2,0.2h-0.9c-0.1,0-0.2-0.1-0.2-0.2v-0.9
			C449.4,38.2,449.5,38.1,449.6,38.1z"/>
		<path class="st0" d="M459.5,38.1h0.9c0.1,0,0.2,0.1,0.2,0.2v0.9c0,0.1-0.1,0.2-0.2,0.2h-0.9c-0.1,0-0.2-0.1-0.2-0.2v-0.9
			C459.3,38.2,459.4,38.1,459.5,38.1z"/>
		<path class="st0" d="M488,38.1h0.9c0.1,0,0.2,0.1,0.2,0.2v0.9c0,0.1-0.1,0.2-0.2,0.2H488c-0.1,0-0.2-0.1-0.2-0.2v-0.9
			C487.9,38.2,487.9,38.1,488,38.1z"/>
		<path class="st0" d="M421.1,100.1h0.9c0.1,0,0.2,0.1,0.2,0.2v0.9c0,0.1-0.1,0.2-0.2,0.2h-0.9c-0.1,0-0.2-0.1-0.2-0.2v-0.9
			C420.9,100.1,421,100.1,421.1,100.1z"/>
		<path class="st0" d="M449.6,100.1h0.9c0.1,0,0.2,0.1,0.2,0.2v0.9c0,0.1-0.1,0.2-0.2,0.2h-0.9c-0.1,0-0.2-0.1-0.2-0.2v-0.9
			C449.4,100.1,449.5,100.1,449.6,100.1z"/>
		<path class="st0" d="M459.5,100.1h0.9c0.1,0,0.2,0.1,0.2,0.2v0.9c0,0.1-0.1,0.2-0.2,0.2h-0.9c-0.1,0-0.2-0.1-0.2-0.2v-0.9
			C459.3,100.1,459.4,100.1,459.5,100.1z"/>
		<path class="st0" d="M488,100.1h0.9c0.1,0,0.2,0.1,0.2,0.2v0.9c0,0.1-0.1,0.2-0.2,0.2H488c-0.1,0-0.2-0.1-0.2-0.2v-0.9
			C487.9,100.1,487.9,100.1,488,100.1z"/>
		<path class="st0" d="M559.5,38.3h26.7c0.3,0,0.6,0.3,0.6,0.6l0,0c0,0.3-0.3,0.6-0.6,0.6h-8.4c-0.3,0-0.6,0.3-0.6,0.6v41.3
			c-0.1,3,0.2,5.9,0.9,8.8c0.5,2.1,1.4,4.1,2.7,5.8c1.2,1.4,2.7,2.5,4.5,3.2c2,0.7,4.1,1,6.2,1c2.9,0.1,5.8-0.4,8.6-1.4
			c2.6-1,4.8-2.8,6.4-5.1c0.6-0.7,1.1-1.5,1.5-2.3c0.5-0.8,0.9-1.7,1.1-2.7c0.4-1.2,0.6-2.4,0.7-3.6c0.2-1.7,0.3-3.5,0.3-5.2V40.1
			c0-0.3-0.3-0.6-0.6-0.6h-8.4c-0.3,0-0.6-0.3-0.6-0.6l0,0c0-0.3,0.3-0.6,0.6-0.6h19.3c0.3,0,0.6,0.3,0.6,0.6c0,0,0,0,0,0l0,0
			c0,0.3-0.3,0.6-0.6,0.6c0,0,0,0,0,0H612c-0.3,0-0.6,0.3-0.6,0.6v41.4c0,2.2-0.2,4.5-0.8,6.6c-0.7,2.3-1.7,4.4-3.2,6.2
			c-1.7,2.2-3.9,3.9-6.5,5c-3.5,1.4-7.2,2.1-11,1.9c-6.9,0-12.2-1.7-15.9-5.1s-5.5-8.6-5.5-15.7V40.1c0-0.3-0.3-0.6-0.6-0.6h-8.4
			c-0.3,0-0.6-0.3-0.6-0.6l0,0C558.9,38.5,559.1,38.3,559.5,38.3C559.5,38.3,559.5,38.3,559.5,38.3z"/>
		<path class="st0" d="M575.8,97.6c-0.1,0-0.2,0-0.3-0.1c-5-2.3-8.2-6.6-9.4-12.7s-1.1-12.5-0.9-18.6c0-2,0.1-4,0.1-6V38.9
			c0-0.4,0.3-0.7,0.7-0.7s0.7,0.3,0.7,0.7v21.4c0,2,0,4-0.1,6c-0.1,6.1-0.3,12.3,0.9,18.3c1.1,5.6,4,9.5,8.6,11.7
			c0.3,0.2,0.5,0.6,0.3,0.9C576.3,97.4,576,97.6,575.8,97.6z"/>
		<path class="st0" d="M558.6,38.3h0.9c0.1,0,0.2,0.1,0.2,0.2v0.9c0,0.1-0.1,0.2-0.2,0.2h-0.9c-0.1,0-0.2-0.1-0.2-0.2v-0.9
			C558.4,38.3,558.5,38.3,558.6,38.3z"/>
		<path class="st0" d="M586.5,38.3h0.9c0.1,0,0.2,0.1,0.2,0.2v0.9c0,0.1-0.1,0.2-0.2,0.2h-0.9c-0.1,0-0.2-0.1-0.2-0.2v-0.9
			C586.3,38.3,586.4,38.3,586.5,38.3z"/>
		<path class="st0" d="M600.1,38.3h0.9c0.1,0,0.2,0.1,0.2,0.2v0.9c0,0.1-0.1,0.2-0.2,0.2h-0.9c-0.1,0-0.2-0.1-0.2-0.2v-0.9
			C599.9,38.3,600,38.3,600.1,38.3z"/>
		<path class="st0" d="M216.2,147.1c0.7,0,1.3-0.1,2-0.2c0.5-0.1,1-0.3,1.4-0.6l0.3,1c-0.5,0.3-1.1,0.5-1.7,0.6
			c-0.7,0.2-1.5,0.2-2.2,0.2c-1,0-2-0.2-2.9-0.5c-0.9-0.3-1.7-0.8-2.3-1.5c-0.7-0.7-1.2-1.5-1.6-2.5c-0.4-1.1-0.6-2.3-0.6-3.4
			c0-1.2,0.2-2.3,0.6-3.4c0.3-0.9,0.9-1.8,1.5-2.5c0.6-0.7,1.4-1.2,2.3-1.5c0.9-0.4,1.9-0.5,2.9-0.5c0.8,0,1.6,0.1,2.3,0.2
			c0.6,0.2,1.2,0.4,1.7,0.6l-0.3,1c-0.5-0.3-1.1-0.5-1.6-0.6c-0.6-0.1-1.2-0.2-1.8-0.2c-0.8,0-1.6,0.1-2.4,0.4
			c-0.7,0.3-1.4,0.7-2,1.2c-0.6,0.6-1.1,1.4-1.4,2.2c-0.4,1-0.5,2.1-0.5,3.2c0,1.1,0.2,2.2,0.6,3.2c0.3,0.8,0.8,1.5,1.4,2.1
			c0.6,0.5,1.3,0.9,2,1.2C214.7,147,215.5,147.1,216.2,147.1z"/>
		<path class="st0" d="M247.7,132.2c0.9,0,1.8,0.2,2.6,0.5c0.8,0.3,1.6,0.8,2.1,1.5c0.6,0.7,1.1,1.6,1.4,2.5
			c0.4,1.1,0.6,2.3,0.5,3.5c0,1.2-0.2,2.3-0.5,3.4c-0.3,0.9-0.8,1.8-1.5,2.5c-0.6,0.7-1.4,1.2-2.2,1.5c-0.8,0.3-1.7,0.5-2.7,0.5
			c-0.9,0-1.8-0.2-2.6-0.5c-0.8-0.3-1.6-0.8-2.1-1.5c-0.6-0.7-1.1-1.6-1.4-2.5c-0.4-1.1-0.6-2.3-0.5-3.5c0-1.2,0.2-2.3,0.5-3.4
			c0.3-0.9,0.8-1.8,1.5-2.5c0.6-0.7,1.4-1.2,2.2-1.5C245.9,132.4,246.8,132.2,247.7,132.2z M242.2,140.2c0,1,0.1,2.1,0.4,3.1
			c0.3,0.8,0.7,1.5,1.2,2.1c0.5,0.6,1.1,1,1.8,1.3c0.7,0.3,1.4,0.4,2.1,0.4c0.7,0,1.4-0.1,2.1-0.4c0.7-0.3,1.3-0.7,1.7-1.3
			c0.5-0.6,0.9-1.4,1.2-2.1c0.6-2,0.6-4.2,0-6.2c-0.3-0.8-0.7-1.5-1.2-2.1c-0.5-0.5-1.1-1-1.8-1.3c-0.7-0.3-1.4-0.4-2.1-0.4
			c-0.7,0-1.4,0.1-2.1,0.4c-0.7,0.3-1.3,0.7-1.7,1.3c-0.5,0.6-0.9,1.4-1.2,2.1C242.3,138.1,242.2,139.1,242.2,140.2L242.2,140.2z"/>
		<path class="st0" d="M277.2,132.4h1.3v9.3c-0.1,1.5,0.3,2.9,1.1,4.1c0.9,0.9,2.1,1.4,3.4,1.3c0.7,0,1.3-0.1,1.9-0.4
			c0.5-0.2,1-0.6,1.3-1.1c0.4-0.5,0.6-1,0.7-1.6c0.2-0.7,0.2-1.4,0.2-2.1v-9.6h1.3v9.5c0.1,1.7-0.4,3.4-1.4,4.7
			c-1.1,1.1-2.5,1.6-4,1.5c-1.5,0.1-3.1-0.5-4.2-1.5c-1-1-1.6-2.6-1.6-4.8L277.2,132.4z"/>
		<path class="st0" d="M322.1,132.4v1h-5.3v14.4h-1.3v-14.4h-5.2v-1L322.1,132.4z"/>
		<path class="st0" d="M343.9,132.4h1.3v9.3c-0.1,1.5,0.3,2.9,1.1,4.1c0.9,0.9,2.1,1.4,3.4,1.3c0.7,0,1.3-0.1,1.9-0.4
			c0.5-0.2,1-0.6,1.3-1.1c0.3-0.5,0.6-1,0.7-1.6c0.2-0.7,0.2-1.4,0.2-2.1v-9.6h1.3v9.5c0.1,1.7-0.4,3.4-1.4,4.7
			c-1.1,1.1-2.6,1.6-4.1,1.5c-1.5,0.1-3.1-0.5-4.2-1.5c-1-1-1.5-2.6-1.5-4.8L343.9,132.4z"/>
		<path class="st0" d="M378.6,132.4h4.5c0.7,0,1.4,0.1,2.1,0.3c0.6,0.2,1.1,0.5,1.5,0.9c0.4,0.4,0.7,0.8,0.9,1.4
			c0.2,0.6,0.3,1.2,0.3,1.8c0,0.5-0.1,1.1-0.3,1.6c-0.2,0.5-0.4,0.9-0.8,1.3c-0.6,0.7-1.4,1.3-2.4,1.5l4.3,6.8h-1.5l-4-6.6h-3.7v6.6
			h-1.2L378.6,132.4z M379.8,140.3h2.9c0.6,0,1.1-0.1,1.6-0.2c0.5-0.1,0.9-0.4,1.3-0.7c0.4-0.3,0.7-0.7,0.9-1.1
			c0.2-0.5,0.3-1,0.3-1.6c0.1-1-0.3-1.9-1-2.5c-0.9-0.6-2-0.8-3-0.8h-2.9L379.8,140.3z"/>
		<path class="st0" d="M411.1,132.4h8.9v1h-7.6v6h6.9v1h-6.9v6.4h7.6v1h-8.9L411.1,132.4z"/>
		<rect x="63.4" y="66.8" class="st0" width="9.9" height="1.2"/>
	</g>
</g>
</svg>
